<?xml version="1.0" encoding="utf-8"?>
<svg height="512pt" viewBox="0 0 512.00533 512" width="512pt" xmlns="http://www.w3.org/2000/svg">
  <path d="M 318.751 276.253 C 307 276.253 297.502 285.774 297.502 297.501 L 297.502 382.504 C 297.502 394.213 287.981 403.753 276.25 403.753 L 212.5 403.753 L 212.5 85.003 C 212.5 66.855 200.939 50.642 183.558 44.607 L 177.267 42.501 L 276.25 42.501 C 287.981 42.501 297.502 52.042 297.502 63.754 L 297.502 127.504 C 297.502 139.231 307 148.753 318.751 148.753 C 330.502 148.753 340 139.231 340 127.504 L 340 63.754 C 340 28.607 311.397 0.004 276.25 0.004 L 47.812 0.004 C 47.003 0.004 46.327 0.365 45.54 0.471 C 44.517 0.385 43.541 0.004 42.501 0.004 C 19.062 0.004 0 19.063 0 42.501 L 0 425.001 C 0 443.149 11.56 459.363 28.941 465.398 L 156.827 508.028 C 161.162 509.365 165.473 510.004 170.002 510.004 C 193.441 510.004 212.5 490.942 212.5 467.503 L 212.5 446.254 L 276.25 446.254 C 311.397 446.254 340 417.651 340 382.504 L 340 297.501 C 340 285.774 330.502 276.253 318.751 276.253 Z M 318.751 276.253" style="fill: rgb(48, 45, 45);"/>
  <path d="M 472.001 188.233 L 399.274 112.237 C 394.077 106.803 386.257 105.168 379.459 108.111 C 372.677 111.058 368.24 117.992 368.24 125.669 L 368.24 182.667 L 295.516 182.667 C 285.478 182.667 277.332 191.177 277.332 201.665 C 277.332 212.154 285.478 220.663 295.516 220.663 L 368.24 220.663 L 368.24 277.661 C 368.24 285.339 372.677 292.272 379.459 295.219 C 386.257 298.162 394.077 296.528 399.274 291.097 L 472.001 215.097 C 479.109 207.67 479.109 195.661 472.001 188.233 Z M 472.001 188.233" style="fill: rgb(48, 45, 45);"/>
</svg>