<?xml version="1.0" encoding="utf-8"?>
<svg id="Capa_1" enable-background="new 0 0 512.083 512.083" height="512" viewBox="0 0 512.083 512.083" width="512" xmlns="http://www.w3.org/2000/svg">
  <g>
    <path d="m59.917.042v121.879h-59.917v345.163c0 24.776 20.146 44.934 44.917 44.957v.001h422.167c24.813 0 45-20.187 45-45v-467h-452.167zm-29.917 467.042v-315.163h29.917v315.121c0 8.264-6.718 14.988-14.979 14.999-8.239-.012-14.938-6.716-14.938-14.957zm452.083-.042c0 8.271-6.729 15-15 15h-379.735c.6-1.694 1.098-3.435 1.493-5.214.019-.086.041-.171.06-.257.657-3.036.993-6.146 1.01-9.252 0-.078.006-.156.006-.234v-.042-345.122-91.879h392.167v437z" style="fill: rgb(48, 45, 45);"/>
    <path d="m118.542 241.621h150.137v30h-150.137z" style="fill: rgb(48, 45, 45);"/>
    <path d="m118.542 301.746h150.137v30h-150.137z" style="fill: rgb(48, 45, 45);"/>
    <path d="m119.71 451.995h332.071v-90.125h-332.071zm30-60.124h272.071v30.125h-272.071z" style="fill: rgb(48, 45, 45);"/>
    <path d="m118.542 181.496h150.137v30h-150.137z" style="fill: rgb(48, 45, 45);"/>
    <path d="m303.046 241.621h150.454v30h-150.454z" style="fill: rgb(48, 45, 45);"/>
    <path d="m303.046 181.496h150.454v30h-150.454z" style="fill: rgb(48, 45, 45);"/>
    <path d="m303.046 121.371h150.454v30h-150.454z" style="fill: rgb(48, 45, 45);"/>
    <path d="m303.046 61.246h150.454v30h-150.454z" style="fill: rgb(48, 45, 45);"/>
    <path d="m267.074 61.246h-147.364v90.125h147.364zm-30 60.125h-87.364v-30.125h87.364z" style="fill: rgb(48, 45, 45);"/>
    <path d="m303.046 301.746h150.454v30h-150.454z" style="fill: rgb(48, 45, 45);"/>
  </g>
</svg>