<?xml version="1.0" encoding="utf-8"?>
<svg id="Capa_1" enable-background="new 0 0 512 512" height="512" viewBox="0 0 512 512" width="512" xmlns="http://www.w3.org/2000/svg">
  <g>
    <path d="m136.911 348.781c-4.142 0-7.5 3.357-7.5 7.5s3.358 7.5 7.5 7.5h238.309c4.142 0 7.5-3.357 7.5-7.5s-3.358-7.5-7.5-7.5z" style="fill: rgb(48, 45, 45);"/>
    <path d="m375.22 396.084h-238.309c-4.142 0-7.5 3.357-7.5 7.5s3.358 7.5 7.5 7.5h238.309c4.142 0 7.5-3.357 7.5-7.5s-3.358-7.5-7.5-7.5z" style="fill: rgb(48, 45, 45);"/>
    <path d="m434.342 0h-356.684c-13.872 0-25.158 11.286-25.158 25.158v266.116c0 4.143 3.358 7.5 7.5 7.5s7.5-3.357 7.5-7.5v-266.116c0-5.601 4.557-10.158 10.158-10.158h356.684c5.601 0 10.158 4.557 10.158 10.158v266.704c0 4.143 3.358 7.5 7.5 7.5s7.5-3.357 7.5-7.5v-266.704c0-13.872-11.286-25.158-25.158-25.158z" style="fill: rgb(48, 45, 45);"/>
    <path d="m452 319.362c-4.142 0-7.5 3.357-7.5 7.5v159.979c0 5.602-4.557 10.158-10.158 10.158h-356.684c-5.601 0-10.158-4.557-10.158-10.158v-160.567c0-4.143-3.358-7.5-7.5-7.5s-7.5 3.357-7.5 7.5v160.567c0 13.873 11.286 25.159 25.158 25.159h356.684c13.872 0 25.158-11.286 25.158-25.158v-159.98c0-4.142-3.358-7.5-7.5-7.5z" style="fill: rgb(48, 45, 45);"/>
    <path d="m165.428 225.07v56.269c0 12.239 9.956 22.208 22.203 22.223l.426.001c12.264 0 22.242-9.969 22.242-22.223v-55.55h11.755c4.732 1.605 8.675-.93 9.907-4.56.838-2.471.315-5.075-1.168-6.997v-71.922l70.95-24.078v118.76l-41.331-14.026c-3.922-1.329-8.181.77-9.512 4.692s.77 8.182 4.692 9.513l45.778 15.535c7.605 2.578 15.373-3.129 15.373-11.021v-128.146c0-6.418-5.217-11.64-11.63-11.64-1.271 0-2.53.208-3.746.62l-79.313 26.916h-48.385c-26.565 0-48.177 21.612-48.177 48.177 0 23.754 17.286 43.535 39.936 47.457zm29.871 56.27c0 3.982-3.249 7.223-7.19 7.223l-.469-.001c-3.977-.005-7.212-3.245-7.212-7.223v-55.549h14.871zm-21.63-136.903h42.124v66.354c-28.827 0-43.763-.016-42.763-.016-17.999-.344-32.537-15.081-32.537-33.161-.001-18.295 14.882-33.177 33.176-33.177z" style="fill: rgb(48, 45, 45);"/>
    <path d="m344.82 185.127h27.364c4.142 0 7.5-3.357 7.5-7.5s-3.358-7.5-7.5-7.5h-27.364c-4.142 0-7.5 3.357-7.5 7.5s3.357 7.5 7.5 7.5z" style="fill: rgb(48, 45, 45);"/>
    <path d="m353.556 144.463 19.349-15.718c3.215-2.611 3.704-7.335 1.092-10.55-2.611-3.216-7.336-3.704-10.55-1.093l-19.349 15.718c-3.215 2.611-3.704 7.335-1.092 10.55 2.612 3.217 7.336 3.703 10.55 1.093z" style="fill: rgb(48, 45, 45);"/>
    <path d="m363.447 238.152c3.211 2.609 7.936 2.126 10.55-1.093 2.612-3.215 2.123-7.938-1.092-10.55l-19.349-15.719c-3.216-2.612-7.938-2.124-10.55 1.093-2.612 3.215-2.123 7.938 1.092 10.55z" style="fill: rgb(48, 45, 45);"/>
    <path d="m402.051 475c11.275 0 20.449-9.174 20.449-20.449v-397.102c0-11.275-9.174-20.449-20.449-20.449h-123.172c-5.504-6.802-13.913-11.161-23.324-11.161s-17.82 4.359-23.324 11.161h-122.282c-11.275 0-20.449 9.174-20.449 20.449v397.102c0 11.275 9.173 20.449 20.449 20.449zm-146.496-434.161c7.606 0 14.037 5.736 14.896 13.298 1.026 8.989-6.041 16.702-14.896 16.702-9.431 0-16.58-8.657-14.702-17.97 1.372-6.786 7.392-12.03 14.702-12.03zm-151.055 413.712v-397.102c0-3.005 2.444-5.449 5.449-5.449h115.853c-.01.075-.013.152-.022.228-2.172 17.996 11.934 33.611 29.775 33.611 17.844 0 31.947-15.619 29.775-33.611-.009-.076-.012-.152-.022-.228h116.743c3.004 0 5.449 2.444 5.449 5.449v397.102c0 3.005-2.444 5.449-5.449 5.449h-292.102c-3.004 0-5.449-2.444-5.449-5.449z" style="fill: rgb(48, 45, 45);"/>
  </g>
</svg>